<?xml version="1.0" encoding="utf-8"?>
<!-- Generator: Adobe Adobe Illustrator 24.2.0, SVG Export Plug-In . SVG Version: 6.00 Build 0)  -->
<svg version="1.1" xmlns="http://www.w3.org/2000/svg" xmlns:xlink="http://www.w3.org/1999/xlink" x="0px" y="0px" width="1920px"
	 height="2042px" viewBox="0 0 1920 2042" style="enable-background:new 0 0 1920 2042;" xml:space="preserve">
<style type="text/css">
	.st0{fill:#FCC001;}
	.st1{fill:#51BAFE;}
	.st2{fill:#54E295;}
	.st3{fill:#1C4274;}
	.st4{fill:url(#SVGID_1_);}
	.st5{fill:url(#SVGID_2_);}
	.st6{fill:url(#SVGID_3_);}
	.st7{fill:url(#SVGID_4_);}
	.st8{fill:url(#SVGID_5_);}
	.st9{fill:url(#SVGID_6_);}
	.st10{fill:#FCCB01;}
	.st11{fill:url(#SVGID_7_);}
	.st12{fill:url(#SVGID_8_);}
	.st13{fill:url(#SVGID_9_);}
	.st14{fill:url(#SVGID_10_);}
	.st15{fill:none;stroke:#FFFFFF;stroke-width:18;stroke-miterlimit:10;}
	.st16{fill:url(#SVGID_11_);}
	.st17{fill:url(#SVGID_12_);}
	.st18{fill:url(#SVGID_13_);}
	.st19{fill:url(#SVGID_14_);}
	.st20{fill:url(#SVGID_15_);}
	.st21{fill:url(#SVGID_16_);}
	.st22{fill:url(#SVGID_17_);}
	.st23{fill:url(#SVGID_18_);}
	.st24{fill:url(#SVGID_19_);}
	.st25{fill:url(#SVGID_20_);}
	.st26{fill:url(#SVGID_21_);}
	.st27{fill:url(#SVGID_22_);}
	.st28{fill:url(#SVGID_23_);}
	.st29{fill:url(#SVGID_24_);}
	.st30{fill:url(#SVGID_25_);}
	.st31{fill:url(#SVGID_26_);}
	.st32{fill:url(#SVGID_27_);}
	.st33{fill:url(#SVGID_28_);}
	.st34{fill:url(#SVGID_29_);}
	.st35{fill:url(#SVGID_30_);}
	.st36{fill:url(#SVGID_31_);}
	.st37{fill:url(#SVGID_32_);}
	.st38{fill:url(#SVGID_33_);}
	.st39{fill:url(#SVGID_34_);}
	.st40{fill:url(#SVGID_35_);}
	.st41{fill:url(#SVGID_36_);}
	.st42{fill:url(#SVGID_37_);}
	.st43{fill:url(#SVGID_38_);}
	.st44{fill:url(#SVGID_39_);}
	.st45{fill:url(#SVGID_40_);}
	.st46{fill:url(#SVGID_41_);}
	.st47{fill:url(#SVGID_42_);}
	.st48{fill:url(#SVGID_43_);}
	.st49{fill:#1A001A;}
	.st50{fill:#FFFFFF;}
	.st51{fill:none;stroke:#000000;stroke-width:18;stroke-miterlimit:10;}
	.st52{fill:#1A001A;stroke:#FFFFFF;stroke-width:18;stroke-miterlimit:10;}
	.st53{fill:none;stroke:#737373;stroke-miterlimit:10;}
</style>
<g id="XMLID_1_">
</g>
<g id="Layer_2">
</g>
<g id="Layer_3">
	<g>
		<linearGradient id="SVGID_1_" gradientUnits="userSpaceOnUse" x1="1478.5487" y1="679.9561" x2="1217.8436" y2="471.6356">
			<stop  offset="0" style="stop-color:#FCCB01"/>
			<stop  offset="1" style="stop-color:#FC9300"/>
		</linearGradient>
		<path class="st4" d="M1265.58,535.79c-74.03-112.4,0.6-171.71,0.6-171.71s169.87-0.3,169.87,171.71
			c0,94.83-76.05,171.71-169.87,171.71C1266.18,707.5,1317.75,614.99,1265.58,535.79z"/>
		<linearGradient id="SVGID_2_" gradientUnits="userSpaceOnUse" x1="1214.5472" y1="291.0625" x2="1316.6149" y2="291.0625">
			<stop  offset="0" style="stop-color:#FCCB01"/>
			<stop  offset="1" style="stop-color:#FC9300"/>
		</linearGradient>
		<path class="st5" d="M1264.98,246.03l-50.43,90.06c0,0,1.98-6,49.85-6c47.87,0,52.22,6,52.22,6L1264.98,246.03z"/>
		<linearGradient id="SVGID_3_" gradientUnits="userSpaceOnUse" x1="1060.2251" y1="380.9412" x2="1160.4178" y2="380.9412">
			<stop  offset="0" style="stop-color:#FCCB01"/>
			<stop  offset="1" style="stop-color:#FC9300"/>
		</linearGradient>
		<path class="st6" d="M1060.23,331.27l28.02,99.34c0,0-2.85-5.65,31-39.5c33.85-33.85,41.17-32.68,41.17-32.68L1060.23,331.27z"/>
		<linearGradient id="SVGID_4_" gradientUnits="userSpaceOnUse" x1="1215.1476" y1="778.6722" x2="1317.2152" y2="778.6722">
			<stop  offset="0" style="stop-color:#FCCB01"/>
			<stop  offset="1" style="stop-color:#FC9300"/>
		</linearGradient>
		<path class="st7" d="M1266.78,823.7l50.43-90.06c0,0-1.98,6-49.85,6c-47.87,0-52.22-6-52.22-6L1266.78,823.7z"/>
		<path class="st10" d="M1060.65,740.31l99.34-28.02c0,0-5.65,2.85-39.5-31c-33.85-33.85-32.68-41.17-32.68-41.17L1060.65,740.31z"
			/>
		<linearGradient id="SVGID_5_" gradientUnits="userSpaceOnUse" x1="976.1893" y1="535.7899" x2="1066.2489" y2="535.7899">
			<stop  offset="0" style="stop-color:#FCCB01"/>
			<stop  offset="1" style="stop-color:#FC9300"/>
		</linearGradient>
		<path class="st8" d="M976.19,536.39l90.06,50.43c0,0-6-1.98-6-49.85c0-47.87,6-52.22,6-52.22L976.19,536.39z"/>
		<linearGradient id="SVGID_6_" gradientUnits="userSpaceOnUse" x1="1370.5684" y1="380.9412" x2="1469.912" y2="380.9412">
			<stop  offset="0" style="stop-color:#FCCB01"/>
			<stop  offset="1" style="stop-color:#FC9300"/>
		</linearGradient>
		<path class="st9" d="M1469.91,330.84l-99.34,28.02c0,0,5.65-2.85,39.5,31c33.85,33.85,32.68,41.17,32.68,41.17L1469.91,330.84z"/>
		<linearGradient id="SVGID_7_" gradientUnits="userSpaceOnUse" x1="1464.0824" y1="535.7899" x2="1554.1421" y2="535.7899">
			<stop  offset="0" style="stop-color:#FCCB01"/>
			<stop  offset="1" style="stop-color:#FC9300"/>
		</linearGradient>
		<path class="st11" d="M1554.14,535.19l-90.06-50.43c0,0,6,1.98,6,49.85c0,47.87-6,52.22-6,52.22L1554.14,535.19z"/>
		<linearGradient id="SVGID_8_" gradientUnits="userSpaceOnUse" x1="1370.1438" y1="690.2141" x2="1470.3365" y2="690.2141">
			<stop  offset="0" style="stop-color:#FCCB01"/>
			<stop  offset="1" style="stop-color:#FC9300"/>
		</linearGradient>
		<path class="st12" d="M1470.34,739.89l-28.02-99.34c0,0,2.85,5.65-31,39.5c-33.85,33.85-41.17,32.68-41.17,32.68L1470.34,739.89z"
			/>
		<g>
			<g>
				<g>
					<linearGradient id="SVGID_9_" gradientUnits="userSpaceOnUse" x1="1138.3373" y1="576.8544" x2="1222.3767" y2="679.521">
						<stop  offset="0" style="stop-color:#FCCB01"/>
						<stop  offset="1" style="stop-color:#FC9300"/>
					</linearGradient>
					<path class="st13" d="M1191.95,686.76c0-8.03,6.53-14.56,14.56-14.56h13.7v-67.41H1110.6c16.22,37.33,45.2,67.7,81.35,85.49
						V686.76z"/>
					<linearGradient id="SVGID_10_" gradientUnits="userSpaceOnUse" x1="1155.6158" y1="390.6433" x2="1391.9561" y2="679.3682">
						<stop  offset="0" style="stop-color:#FCCB01"/>
						<stop  offset="1" style="stop-color:#FC9300"/>
					</linearGradient>
					<path class="st14" d="M1266.18,364.08c-93.82,0-169.87,76.88-169.87,171.71c0,17.76,2.67,34.88,7.62,51h119.72
						c8.03,0,14.56,6.53,14.56,14.56v74.28c0,8.03-6.53,14.56-14.56,14.56h-13.7v7.66c17.6,6.24,36.52,9.64,56.23,9.64
						c93.82,0,169.87-76.88,169.87-171.71S1360,364.08,1266.18,364.08z"/>
				</g>
			</g>
		</g>
		<g>
			<linearGradient id="SVGID_11_" gradientUnits="userSpaceOnUse" x1="533.6025" y1="1437.3715" x2="843.7322" y2="660.8544">
				<stop  offset="0" style="stop-color:#1C4274"/>
				<stop  offset="0.4548" style="stop-color:#377EBA"/>
				<stop  offset="0.8203" style="stop-color:#4BA9EC"/>
				<stop  offset="1" style="stop-color:#52BAFF"/>
			</linearGradient>
			<path class="st16" d="M527.1,942.31c-15.02,55.5-24.07,113.24-23.53,170.6c9.48,62.81,26.37,127.54,50.7,195.08
				c23.62,65.58,51.56,117.93,85.42,160.04c19,23.63,39.99,44.06,62.42,60.89c1.45,0.98,2.91,1.96,4.37,2.93
				c-41.28-39.1-77.26-84.74-106.08-134.94c-44.01-76.69-70.4-162.38-76.3-247.8l-0.29-4.22l3.06-2.92
				c152.22-145.02,175.3-181.34,217.21-247.26c4.29-6.75,8.72-13.72,13.53-21.17c33.51-52,71.97-145.46,70.08-237.72
				c-0.13-6.17-0.32-12.25-0.57-18.27L554.67,857.29C544.25,885.22,534.89,913.51,527.1,942.31z"/>
			<linearGradient id="SVGID_12_" gradientUnits="userSpaceOnUse" x1="815.1013" y1="1557.8046" x2="1187.6436" y2="625.0162">
				<stop  offset="0" style="stop-color:#1C4274"/>
				<stop  offset="0.4548" style="stop-color:#377EBA"/>
				<stop  offset="0.8203" style="stop-color:#4BA9EC"/>
				<stop  offset="1" style="stop-color:#52BAFF"/>
			</linearGradient>
			<path class="st17" d="M1364.66,1024.4l-161.82-142.38c-1.2-1.06-1.89-2.58-1.89-4.18V686.76c0-3.07,2.49-5.56,5.56-5.56h17.14
				c3.07,0,5.56-2.49,5.56-5.56v-74.28c0-3.07-2.49-5.56-5.56-5.56h-216.34c-3.07,0-5.56,2.49-5.56,5.56v74.28
				c0,3.07,2.49,5.56,5.56,5.56h17.2c3.07,0,5.56,2.49,5.56,5.56v30.96c0,4.79-5.64,7.34-9.24,4.18L868.37,587.74
				c-2.1-1.85-5.25-1.85-7.35,0l-16.59,14.6c0.61,10.81,1.04,21.85,1.27,33.12c1.97,96.32-38.07,193.7-72.95,247.84
				c-4.77,7.41-9.19,14.36-13.47,21.08c-42.39,66.67-65.86,103.6-216.91,247.7c6.28,81.33,31.7,162.79,73.65,235.88
				c42.67,74.34,101.48,138.36,170.09,185.14l13.08,8.92h437.26c3.07,0,5.56-2.49,5.56-5.56V1039.7c0-3.07,2.49-5.56,5.56-5.56
				h113.42C1366.11,1034.14,1368.51,1027.79,1364.66,1024.4z M1048.11,1193.05v1.46c-33.45,10.1-31.97,53.87-31.97,53.87h-1.48
				h-1.48c0,0,1.48-43.77-31.97-53.87v-1.46v-1.46c33.45-10.1,31.97-53.87,31.97-53.87h1.48h1.48c0,0-1.48,43.77,31.97,53.87
				V1193.05z M1066.68,1137.72h-3.83h-3.83c0,0,3.83-113.4-82.83-139.57v-3.79v-3.79c86.66-26.17,82.83-139.57,82.83-139.57h3.83
				h3.83c0,0-3.83,113.4,82.83,139.57v3.79v3.79C1062.85,1024.32,1066.68,1137.72,1066.68,1137.72z M1182.96,1137.72v1.46
				c-33.45,10.1-31.97,53.87-31.97,53.87h-1.48h-1.48c0,0,1.48-43.77-31.97-53.87v-1.46v-1.46c33.45-10.1,31.97-53.87,31.97-53.87
				h1.48h1.48c0,0-1.48,43.77,31.97,53.87V1137.72z"/>
		</g>
		<g>
			<linearGradient id="SVGID_13_" gradientUnits="userSpaceOnUse" x1="508.2197" y1="921.6796" x2="907.6024" y2="1333.0737">
				<stop  offset="0" style="stop-color:#1C4274"/>
				<stop  offset="0.4548" style="stop-color:#3D81BA"/>
				<stop  offset="0.8203" style="stop-color:#55AEEC"/>
				<stop  offset="1" style="stop-color:#5EBFFF"/>
			</linearGradient>
			<path class="st18" d="M728.64,918.83c-45.92-125.95-16.34-200.24-16.34-200.24c-10.42,27.93-177.41,194.92-185.2,223.72
				c-15.02,55.5-24.07,113.24-23.53,170.6c9.48,62.81,26.37,127.54,50.7,195.08c23.62,65.58,51.56,117.93,85.42,160.04
				c19,23.63,39.99,44.06,62.42,60.89c1.45,0.98,2.91,1.96,4.37,2.93c-41.28-39.1-77.26-84.74-106.08-134.94
				c-44.01-76.69-70.4-162.38-76.3-247.8l-0.29-4.22l3.06-2.92C659.64,1015.49,694.17,971.7,728.64,918.83z"/>
			<linearGradient id="SVGID_14_" gradientUnits="userSpaceOnUse" x1="590.5585" y1="1088.1505" x2="1149.3757" y2="1663.7744">
				<stop  offset="0" style="stop-color:#1C4274"/>
				<stop  offset="0.4548" style="stop-color:#3D81BA"/>
				<stop  offset="0.8203" style="stop-color:#55AEEC"/>
				<stop  offset="1" style="stop-color:#5EBFFF"/>
			</linearGradient>
			<path class="st19" d="M875.48,1153.12c-70.86-80.64-113.61-152.64-138.84-213.73c-32.9,49.11-71.33,95.4-194.26,212.68
				c6.28,81.33,31.7,162.79,73.65,235.88c42.67,74.34,101.48,138.36,170.09,185.14l13.08,8.92h437.26c3.07,0,5.56-2.49,5.56-5.56
				C1242,1576.45,1240.73,1568.79,875.48,1153.12z"/>
		</g>
		<linearGradient id="SVGID_15_" gradientUnits="userSpaceOnUse" x1="525.7811" y1="1123.4768" x2="903.487" y2="656.3901">
			<stop  offset="0" style="stop-color:#1E9478"/>
			<stop  offset="1" style="stop-color:#58E897"/>
		</linearGradient>
		<path class="st20" d="M481.7,1149.29c-80.43-75.86-119.58-189.63-115.56-300.03s48.39-217,113.58-306.36
			c18.96-25.98,39.65-50.65,60.32-75.3c23.36-27.85,46.72-55.71,70.09-83.56c-5.67,19.96-14.69,38.97-26.56,56.01
			c90.8-99.05,80.46-189.25,64.74-240.81C806.28,368.11,833.79,493.43,836.7,635.65c1.95,95.42-37.8,190.45-71.52,242.78
			c-51.68,80.2-63.46,109.4-232.1,270.07c11.84,171.35,105.85,335.15,247.95,432.03c-58.85-19.07-109.65-58.71-148.36-106.85
			c-38.7-48.14-65.96-104.55-86.88-162.63c-71.83-199.44-84.86-389.2-9.46-587.46c7.46-19.61,28.25-78.77,38.72-96.97
			c11.47-19.93-82.25,142.06-103.81,262.49C449.35,1011.37,487.45,1145.54,481.7,1149.29z"/>
		<linearGradient id="SVGID_16_" gradientUnits="userSpaceOnUse" x1="888.4821" y1="450.1508" x2="512.4764" y2="1401.4225">
			<stop  offset="0" style="stop-color:#1E9478"/>
			<stop  offset="1" style="stop-color:#58E897"/>
		</linearGradient>
		<path class="st21" d="M648.3,199.26C806.28,368.11,833.79,493.43,836.7,635.65c1.95,95.42-37.8,190.45-71.52,242.78
			c-51.68,80.2-63.46,109.4-232.1,270.07c11.84,171.35,105.85,335.15,247.95,432.03c-58.85-19.07-109.65-58.71-148.36-106.85
			c-38.7-48.14-65.96-104.55-86.88-162.63c-71.83-199.44-83.98-388.87-9.46-587.46C642.82,439.79,740.26,407.95,648.3,199.26z"/>
		<g>
			<path class="st3" d="M474.64,1745.52v-50.26h-45.55v50.26h-24.26v-124.26h24.26v52.53h45.55v-52.53h24.26v124.26H474.64z"/>
			<path class="st3" d="M526.11,1745.52v-124.26h24.26v124.26H526.11z"/>
			<path class="st3" d="M571.66,1671.69c0-32.29,17.63-51.49,48.87-51.49c14.14,0,26.53,4.89,35.25,13.61
				c7.5,7.5,9.6,19.02,9.6,28.8h-22.69c0-14.66-8.55-20.77-22.16-20.77c-23.04,0-23.21,20.59-23.21,41.54
				c0.17,20.94-0.17,41.54,25.66,41.54c9.08,0,16.76-3.32,21.47-12.91v-8.38h-15.01v-20.24h35.78v37.52
				c-7.5,17.63-24.78,25.66-43.63,25.66c-35.78,0-49.91-20.42-49.91-59.51V1671.69z"/>
			<path class="st3" d="M758.57,1745.52v-50.26h-45.55v50.26h-24.26v-124.26h24.26v52.53h45.55v-52.53h24.26v124.26H758.57z"/>
			<path class="st3" d="M941.64,1687.05c0,17.8-4.19,32.81-14.83,41.01c5.93-0.35,11.87-1.22,17.8-2.97v21.47h-52.36
				c-14.14,0-28.45-4.89-37.17-13.61c-11.87-11.87-12.22-26.53-12.22-46.25v-6.63c0-19.72,0.35-34.38,12.22-46.25
				c8.73-8.73,23.04-13.61,37.17-13.61c14.14,0,28.27,4.89,37,13.61c12.22,12.22,12.39,25.48,12.39,46.08V1687.05z M917.38,1677.63
				c0-18.15-1.05-35.78-25.13-35.78c-24.43,0-25.13,17.45-25.13,38.22v6.46c0.18,19.02-0.17,38.4,25.13,38.4
				c24.61,0,25.13-17.98,25.13-38.92V1677.63z"/>
			<path class="st3" d="M1054.03,1702.93c0,28.1-21.99,43.63-47.47,43.63c-25.48,0-47.47-15.53-47.47-43.63v-81.68h24.26v80.81
				c0,16.06,10.12,22.86,23.21,22.86c13.09,0,23.39-6.81,23.39-22.86v-80.81h24.08V1702.93z"/>
			<path class="st3" d="M1148.27,1745.52l-6.98-21.47h-41.71l-6.81,21.47h-25.31l39.79-113.79c3.67-8.38,7.85-10.47,13.79-10.47
				c5.58,0,9.6,1.57,12.74,10.47l39.79,113.79H1148.27z M1121.04,1654.42l-15.36,49.22h30.02L1121.04,1654.42z"/>
			<path class="st3" d="M1230.29,1745.52c-27.75,0-39.62-9.95-39.62-34.56v-89.71h24.26v89.71c0,9.95,3.84,12.91,15.36,12.91h37
				v21.64H1230.29z"/>
			<path class="st3" d="M1286.65,1745.52v-124.26h24.26v124.26H1286.65z"/>
			<path class="st3" d="M1387.35,1642.9v102.62h-24.26V1642.9h-33.16v-21.64h90.75v21.64H1387.35z"/>
			<path class="st3" d="M1487,1694.56v50.96h-24.08v-50.96l-37.35-73.3h26.35l23.21,50.09l22.86-50.09h26.35L1487,1694.56z"/>
		</g>
		<g>
			<path d="M676.18,1798.93c0,4,0.52,7.48,1.56,10.42c1.04,2.94,2.4,5.38,4.09,7.32c1.69,1.94,3.6,3.38,5.74,4.32
				c2.14,0.94,4.31,1.41,6.51,1.41c2.28,0,4.34-0.41,6.17-1.24s3.44-1.91,4.81-3.27c1.36-1.35,2.49-2.9,3.38-4.64
				c0.89-1.74,1.52-3.52,1.9-5.35h5.67c-0.52,2.7-1.39,5.24-2.59,7.6c-1.2,2.37-2.72,4.42-4.56,6.18c-1.84,1.75-3.99,3.13-6.46,4.15
				c-2.47,1.01-5.24,1.52-8.32,1.52c-3.58,0-6.81-0.64-9.7-1.93c-2.89-1.29-5.36-3.15-7.4-5.59s-3.61-5.43-4.71-8.95
				c-1.1-3.53-1.65-7.52-1.65-11.98c0-3.45,0.53-6.78,1.58-9.97c1.05-3.19,2.57-6.02,4.56-8.48c1.99-2.47,4.43-4.43,7.32-5.89
				c2.89-1.46,6.19-2.2,9.89-2.2c3.1,0,5.88,0.41,8.33,1.24s4.59,1.97,6.4,3.44c1.81,1.46,3.33,3.2,4.56,5.22
				c1.23,2.01,2.18,4.22,2.85,6.63h-5.89c-1.38-3.93-3.39-6.85-6.02-8.77c-2.64-1.91-6.05-2.87-10.23-2.87
				c-2.6,0-4.99,0.58-7.17,1.73c-2.18,1.15-4.05,2.72-5.63,4.69c-1.58,1.98-2.8,4.28-3.68,6.91
				C676.62,1793.19,676.18,1795.98,676.18,1798.93z"/>
			<path d="M731.82,1773.41v52.63h-5.56v-52.63H731.82z"/>
			<path d="M746.31,1807.87c0.02,1.75,0.33,3.47,0.92,5.16c0.59,1.69,1.39,3.19,2.4,4.5c1.01,1.31,2.21,2.38,3.58,3.19
				c1.38,0.81,2.87,1.22,4.47,1.22c5.41,0,9-2.51,10.77-7.55h5.07c-0.43,1.95-1.14,3.7-2.14,5.24c-1,1.54-2.22,2.84-3.64,3.9
				s-3,1.87-4.73,2.42c-1.73,0.55-3.5,0.83-5.33,0.83c-2.63,0-5-0.56-7.11-1.69c-2.11-1.13-3.92-2.63-5.42-4.5
				c-1.5-1.88-2.65-4.05-3.45-6.51c-0.8-2.46-1.2-5.05-1.2-7.75c0-2.53,0.4-4.95,1.2-7.28c0.8-2.33,1.95-4.38,3.44-6.16
				c1.49-1.78,3.29-3.19,5.41-4.24c2.11-1.05,4.49-1.58,7.11-1.58c2.55,0,4.85,0.48,6.89,1.43c2.04,0.95,3.78,2.27,5.24,3.94
				c1.45,1.68,2.57,3.64,3.34,5.89c0.77,2.25,1.16,4.69,1.16,7.32v2.21H746.31z M768.53,1803.59c-0.05-1.6-0.34-3.1-0.88-4.5
				c-0.54-1.4-1.29-2.63-2.25-3.68c-0.96-1.05-2.13-1.88-3.51-2.48c-1.38-0.6-2.92-0.9-4.62-0.9c-1.55,0-2.99,0.33-4.32,0.98
				c-1.33,0.65-2.48,1.51-3.45,2.59s-1.75,2.31-2.31,3.7c-0.56,1.39-0.86,2.82-0.88,4.3H768.53z"/>
			<path d="M813.8,1826.34c-0.35,0.13-0.81,0.23-1.37,0.32c-0.56,0.09-1.03,0.13-1.41,0.13c-1.55,0-2.86-0.6-3.92-1.78
				c-1.06-1.19-1.66-3.01-1.78-5.46c-1.2,1.55-2.38,2.8-3.55,3.75c-1.16,0.95-2.32,1.68-3.47,2.2c-1.15,0.51-2.31,0.86-3.47,1.03
				c-1.16,0.18-2.35,0.26-3.55,0.26c-1.55,0-3-0.25-4.36-0.75c-1.35-0.5-2.53-1.21-3.55-2.14c-1.01-0.93-1.81-2.04-2.38-3.34
				c-0.58-1.3-0.86-2.75-0.86-4.35s0.35-2.97,1.05-4.11c0.7-1.14,1.63-2.12,2.8-2.95s2.48-1.52,3.94-2.08
				c1.46-0.56,2.97-1.06,4.5-1.5c1.54-0.44,3.05-0.86,4.52-1.26c1.48-0.4,2.8-0.85,3.96-1.33c1.16-0.49,2.1-1.05,2.8-1.69
				c0.7-0.64,1.05-1.43,1.05-2.38c0-1.1-0.21-2.08-0.64-2.93c-0.43-0.85-1.03-1.57-1.8-2.16c-0.78-0.59-1.72-1.03-2.82-1.33
				c-1.1-0.3-2.32-0.45-3.64-0.45c-1.13,0-2.19,0.14-3.19,0.43c-1,0.29-1.9,0.71-2.7,1.26c-0.8,0.55-1.46,1.23-1.99,2.03
				c-0.52,0.8-0.86,1.73-1.01,2.78h-5.82c0.12-1.85,0.63-3.49,1.5-4.92s1.99-2.62,3.34-3.58c1.35-0.96,2.88-1.7,4.6-2.2
				c1.71-0.5,3.47-0.75,5.27-0.75c1.95,0,3.8,0.24,5.54,0.71s3.27,1.2,4.6,2.18c1.33,0.98,2.38,2.21,3.15,3.7
				c0.78,1.49,1.16,3.23,1.16,5.24v19.78c0,0.98,0.24,1.76,0.73,2.35c0.49,0.59,1.09,0.88,1.82,0.88c0.33,0,0.64-0.05,0.94-0.15
				V1826.34z M804.76,1804.79c-0.78,0.83-1.78,1.51-3.02,2.05c-1.24,0.54-2.57,1.02-3.98,1.45c-1.41,0.43-2.83,0.84-4.26,1.24
				c-1.43,0.4-2.72,0.88-3.89,1.43c-1.16,0.55-2.11,1.22-2.83,2.01c-0.73,0.79-1.09,1.78-1.09,2.98c0,1.08,0.19,1.99,0.56,2.74
				c0.38,0.75,0.86,1.37,1.46,1.86s1.29,0.84,2.06,1.07s1.56,0.34,2.37,0.34c2.3,0,4.56-0.7,6.78-2.1c2.22-1.4,4.16-3.55,5.84-6.46
				V1804.79z"/>
			<path d="M821.58,1787.82h5.56v5.63c1.95-2.25,4.05-3.88,6.31-4.88c2.25-1,4.57-1.5,6.94-1.5c1.78,0,3.37,0.26,4.77,0.79
				c1.4,0.53,2.59,1.28,3.57,2.25c0.98,0.98,1.72,2.16,2.23,3.55c0.51,1.39,0.77,2.95,0.77,4.67v27.7h-5.56v-26.99
				c0-1.3-0.16-2.4-0.47-3.28c-0.31-0.89-0.76-1.61-1.35-2.16c-0.59-0.55-1.31-0.95-2.16-1.2c-0.85-0.25-1.8-0.38-2.85-0.38
				c-1.7,0-3.29,0.3-4.77,0.9c-1.48,0.6-2.76,1.4-3.87,2.38c-1.1,0.99-1.97,2.13-2.61,3.42c-0.64,1.29-0.96,2.62-0.96,4v23.31h-5.56
				V1787.82z"/>
			<path d="M868.54,1773.41v6.49h-5.56v-6.49H868.54z M868.54,1787.82v38.22h-5.56v-38.22H868.54z"/>
			<path d="M879.8,1787.82h5.56v5.63c1.95-2.25,4.05-3.88,6.31-4.88c2.25-1,4.57-1.5,6.94-1.5c1.78,0,3.37,0.26,4.77,0.79
				c1.4,0.53,2.59,1.28,3.57,2.25c0.98,0.98,1.72,2.16,2.23,3.55c0.51,1.39,0.77,2.95,0.77,4.67v27.7h-5.56v-26.99
				c0-1.3-0.16-2.4-0.47-3.28c-0.31-0.89-0.76-1.61-1.35-2.16c-0.59-0.55-1.31-0.95-2.16-1.2c-0.85-0.25-1.8-0.38-2.85-0.38
				c-1.7,0-3.29,0.3-4.77,0.9s-2.76,1.4-3.87,2.38c-1.1,0.99-1.97,2.13-2.61,3.42c-0.64,1.29-0.96,2.62-0.96,4v23.31h-5.56V1787.82z
				"/>
			<path d="M951.13,1826.98c0,2.58-0.44,4.85-1.31,6.81c-0.88,1.96-2.05,3.61-3.51,4.94c-1.47,1.33-3.15,2.33-5.05,3
				c-1.9,0.68-3.88,1.01-5.93,1.01c-3.53,0-6.62-0.91-9.27-2.74s-4.65-4.73-6.01-8.71h5.59c1.03,2.3,2.33,3.97,3.9,4.99
				c1.58,1.03,3.5,1.54,5.78,1.54c1.4,0,2.72-0.26,3.96-0.79c1.24-0.53,2.33-1.26,3.27-2.2c0.94-0.94,1.68-2.05,2.22-3.34
				c0.54-1.29,0.81-2.71,0.81-4.26v-7.25c-0.63,1.2-1.34,2.23-2.14,3.1c-0.8,0.86-1.65,1.57-2.55,2.12c-0.9,0.55-1.84,0.95-2.82,1.2
				c-0.98,0.25-1.95,0.38-2.93,0.38c-2.55,0-4.85-0.54-6.89-1.61c-2.04-1.08-3.77-2.53-5.2-4.36c-1.43-1.83-2.52-3.95-3.28-6.38
				c-0.76-2.43-1.15-4.99-1.15-7.7c0-2.7,0.38-5.25,1.15-7.64c0.76-2.39,1.84-4.47,3.23-6.25c1.39-1.78,3.07-3.18,5.03-4.22
				c1.96-1.04,4.16-1.56,6.59-1.56c0.85,0,1.75,0.08,2.7,0.23c0.95,0.15,1.91,0.46,2.87,0.94c0.96,0.48,1.9,1.16,2.81,2.05
				c0.91,0.89,1.77,2.06,2.57,3.51v-5.97h5.56V1826.98z M945.57,1806.29c-0.05-1.95-0.31-3.79-0.77-5.52
				c-0.46-1.73-1.13-3.23-1.99-4.52c-0.86-1.29-1.92-2.31-3.17-3.08c-1.25-0.76-2.67-1.15-4.24-1.15c-1.63,0-3.13,0.39-4.5,1.16
				c-1.38,0.78-2.56,1.83-3.55,3.17c-0.99,1.34-1.76,2.9-2.33,4.67c-0.56,1.78-0.84,3.68-0.84,5.7c0,2.03,0.28,3.95,0.84,5.78
				c0.56,1.83,1.34,3.44,2.33,4.82c0.99,1.39,2.17,2.49,3.55,3.3c1.38,0.81,2.88,1.22,4.5,1.22c1.6,0,3.03-0.38,4.3-1.15
				c1.26-0.76,2.33-1.81,3.21-3.13c0.88-1.33,1.54-2.87,1.99-4.64c0.45-1.76,0.68-3.66,0.68-5.69V1806.29z"/>
			<path d="M984.05,1809.67c0.12,1.88,0.55,3.6,1.28,5.16c0.73,1.56,1.69,2.92,2.89,4.07c1.2,1.15,2.62,2.05,4.26,2.68
				c1.64,0.64,3.44,0.96,5.39,0.96c1.75,0,3.43-0.19,5.03-0.58c1.6-0.39,3.02-1,4.24-1.84c1.23-0.84,2.2-1.93,2.93-3.27
				c0.73-1.34,1.09-2.96,1.09-4.86c0-1.55-0.39-2.87-1.18-3.96c-0.79-1.09-1.83-2.03-3.12-2.82c-1.29-0.79-2.75-1.47-4.39-2.05
				c-1.64-0.58-3.3-1.11-4.97-1.61c-1.4-0.4-2.81-0.84-4.22-1.31c-1.41-0.48-2.78-1.01-4.09-1.61c-1.31-0.6-2.54-1.29-3.68-2.06
				c-1.14-0.78-2.13-1.69-2.97-2.74s-1.5-2.25-1.99-3.58c-0.49-1.34-0.73-2.88-0.73-4.64c0-2.18,0.43-4.1,1.28-5.76
				c0.85-1.66,2.05-3.06,3.59-4.19c1.54-1.13,3.38-1.98,5.52-2.57c2.14-0.59,4.49-0.88,7.04-0.88c2.28,0,4.29,0.23,6.04,0.68
				c1.75,0.45,3.28,1.06,4.58,1.84c1.3,0.78,2.4,1.68,3.3,2.72c0.9,1.04,1.64,2.13,2.21,3.28c0.58,1.15,1,2.34,1.28,3.57
				c0.27,1.23,0.45,2.4,0.52,3.53h-5.71c-0.15-1.75-0.57-3.29-1.26-4.62c-0.69-1.33-1.58-2.44-2.67-3.34
				c-1.09-0.9-2.35-1.58-3.77-2.03c-1.43-0.45-2.94-0.68-4.54-0.68c-1.48,0-2.92,0.15-4.34,0.45c-1.41,0.3-2.68,0.78-3.79,1.45
				c-1.11,0.66-2.01,1.53-2.7,2.61c-0.69,1.08-1.03,2.39-1.03,3.94c0,1.6,0.39,2.96,1.16,4.07c0.77,1.11,1.81,2.07,3.12,2.87
				s2.78,1.49,4.45,2.06c1.66,0.58,3.38,1.14,5.16,1.69c1.43,0.43,2.84,0.88,4.24,1.35s2.75,1.01,4.05,1.61
				c1.3,0.6,2.51,1.28,3.62,2.05c1.11,0.76,2.08,1.65,2.91,2.67c0.83,1.01,1.47,2.18,1.93,3.49c0.46,1.31,0.7,2.82,0.7,4.52
				c0,2.55-0.47,4.8-1.41,6.74c-0.94,1.94-2.25,3.56-3.92,4.86c-1.68,1.3-3.67,2.28-5.97,2.95c-2.3,0.66-4.82,0.99-7.55,0.99
				c-2.45,0-4.84-0.42-7.17-1.26c-2.33-0.84-4.4-2.03-6.21-3.57c-1.81-1.54-3.28-3.41-4.39-5.61c-1.11-2.2-1.71-4.68-1.78-7.43
				H984.05z"/>
			<path d="M1030.07,1807.87c0.02,1.75,0.33,3.47,0.92,5.16c0.59,1.69,1.39,3.19,2.4,4.5c1.01,1.31,2.21,2.38,3.58,3.19
				c1.38,0.81,2.87,1.22,4.47,1.22c5.41,0,9-2.51,10.77-7.55h5.07c-0.43,1.95-1.14,3.7-2.14,5.24c-1,1.54-2.21,2.84-3.64,3.9
				s-3,1.87-4.73,2.42c-1.73,0.55-3.5,0.83-5.33,0.83c-2.63,0-5-0.56-7.11-1.69c-2.11-1.13-3.92-2.63-5.42-4.5
				c-1.5-1.88-2.65-4.05-3.45-6.51c-0.8-2.46-1.2-5.05-1.2-7.75c0-2.53,0.4-4.95,1.2-7.28c0.8-2.33,1.95-4.38,3.44-6.16
				c1.49-1.78,3.29-3.19,5.41-4.24c2.11-1.05,4.49-1.58,7.11-1.58c2.55,0,4.85,0.48,6.89,1.43c2.04,0.95,3.78,2.27,5.24,3.94
				c1.45,1.68,2.57,3.64,3.34,5.89c0.77,2.25,1.16,4.69,1.16,7.32v2.21H1030.07z M1052.3,1803.59c-0.05-1.6-0.34-3.1-0.88-4.5
				c-0.54-1.4-1.29-2.63-2.25-3.68c-0.96-1.05-2.13-1.88-3.51-2.48c-1.38-0.6-2.92-0.9-4.62-0.9c-1.55,0-2.99,0.33-4.32,0.98
				c-1.33,0.65-2.48,1.51-3.45,2.59s-1.75,2.31-2.31,3.7c-0.56,1.39-0.86,2.82-0.88,4.3H1052.3z"/>
			<path d="M1066.67,1787.82h5.56l-0.23,6.34c1.18-2.08,2.56-3.67,4.15-4.77c1.59-1.1,3.45-1.65,5.57-1.65
				c0.18,0,0.42,0.01,0.73,0.04c0.31,0.02,0.64,0.06,0.98,0.09c0.34,0.04,0.66,0.09,0.98,0.15c0.31,0.06,0.56,0.13,0.73,0.21v5.67
				c-0.58-0.2-1.23-0.36-1.95-0.47c-0.73-0.11-1.26-0.17-1.61-0.17c-1.48,0-2.79,0.28-3.94,0.83c-1.15,0.55-2.13,1.29-2.93,2.23
				c-0.8,0.94-1.41,2.01-1.84,3.23c-0.43,1.22-0.64,2.48-0.64,3.81v22.67h-5.56V1787.82z"/>
			<path d="M1104.03,1819.47l11-31.65h5.86l-13.81,38.22h-6.04l-13.93-38.22h5.97L1104.03,1819.47z"/>
			<path d="M1133.23,1773.41v6.49h-5.56v-6.49H1133.23z M1133.23,1787.82v38.22h-5.56v-38.22H1133.23z"/>
			<path d="M1167.66,1799.31c-0.78-2.65-1.91-4.53-3.42-5.63c-1.5-1.1-3.48-1.65-5.93-1.65c-1.73,0-3.27,0.39-4.62,1.16
				c-1.35,0.78-2.48,1.81-3.4,3.12c-0.91,1.3-1.61,2.8-2.1,4.5c-0.49,1.7-0.73,3.48-0.73,5.33c0,1.93,0.24,3.83,0.73,5.72
				c0.49,1.89,1.19,3.57,2.12,5.05c0.93,1.48,2.05,2.67,3.38,3.59c1.33,0.91,2.83,1.37,4.5,1.37c1.35,0,2.56-0.24,3.62-0.73
				s1.98-1.15,2.74-1.97c0.76-0.83,1.39-1.79,1.9-2.89c0.5-1.1,0.86-2.28,1.09-3.53h6.12c-0.27,2.18-0.83,4.14-1.67,5.88
				c-0.84,1.74-1.93,3.22-3.27,4.43c-1.34,1.22-2.92,2.14-4.73,2.78c-1.81,0.64-3.82,0.96-6.02,0.96c-1.85,0-3.54-0.29-5.07-0.86
				c-1.53-0.57-2.89-1.36-4.07-2.35c-1.19-0.99-2.22-2.15-3.1-3.49c-0.88-1.34-1.6-2.77-2.16-4.3c-0.56-1.53-0.98-3.11-1.26-4.75
				c-0.28-1.64-0.41-3.27-0.41-4.9c0-2.63,0.39-5.1,1.16-7.42c0.77-2.31,1.88-4.34,3.32-6.06c1.44-1.73,3.17-3.09,5.2-4.09
				c2.03-1,4.3-1.5,6.83-1.5c2.2,0,4.16,0.31,5.88,0.92c1.71,0.61,3.2,1.46,4.45,2.55c1.25,1.09,2.28,2.38,3.08,3.89
				c0.8,1.5,1.38,3.13,1.73,4.88H1167.66z"/>
			<path d="M1185.49,1807.87c0.02,1.75,0.33,3.47,0.92,5.16c0.59,1.69,1.39,3.19,2.4,4.5c1.01,1.31,2.21,2.38,3.58,3.19
				c1.38,0.81,2.87,1.22,4.47,1.22c5.41,0,9-2.51,10.77-7.55h5.07c-0.43,1.95-1.14,3.7-2.14,5.24c-1,1.54-2.22,2.84-3.64,3.9
				s-3,1.87-4.73,2.42c-1.73,0.55-3.5,0.83-5.33,0.83c-2.63,0-5-0.56-7.11-1.69c-2.11-1.13-3.92-2.63-5.42-4.5
				c-1.5-1.88-2.65-4.05-3.45-6.51c-0.8-2.46-1.2-5.05-1.2-7.75c0-2.53,0.4-4.95,1.2-7.28c0.8-2.33,1.95-4.38,3.44-6.16
				c1.49-1.78,3.29-3.19,5.41-4.24c2.11-1.05,4.49-1.58,7.11-1.58c2.55,0,4.85,0.48,6.89,1.43c2.04,0.95,3.78,2.27,5.24,3.94
				c1.45,1.68,2.57,3.64,3.34,5.89c0.77,2.25,1.16,4.69,1.16,7.32v2.21H1185.49z M1207.71,1803.59c-0.05-1.6-0.34-3.1-0.88-4.5
				c-0.54-1.4-1.29-2.63-2.25-3.68c-0.96-1.05-2.13-1.88-3.51-2.48c-1.38-0.6-2.92-0.9-4.62-0.9c-1.55,0-2.99,0.33-4.32,0.98
				c-1.33,0.65-2.48,1.51-3.45,2.59s-1.75,2.31-2.31,3.7c-0.56,1.39-0.86,2.82-0.88,4.3H1207.71z"/>
			<path d="M1224.19,1814.4c0.02,1.38,0.26,2.54,0.71,3.49c0.45,0.95,1.06,1.73,1.84,2.33c0.78,0.6,1.68,1.04,2.72,1.31
				c1.04,0.28,2.18,0.41,3.44,0.41c1,0,2.06-0.09,3.17-0.28c1.11-0.19,2.13-0.51,3.06-0.96c0.93-0.45,1.69-1.06,2.29-1.82
				c0.6-0.76,0.9-1.73,0.9-2.91c0-1.08-0.33-1.99-0.98-2.74c-0.65-0.75-1.5-1.41-2.55-1.99c-1.05-0.58-2.25-1.09-3.6-1.56
				c-1.35-0.46-2.73-0.94-4.13-1.45c-1.4-0.5-2.78-1.04-4.13-1.63c-1.35-0.59-2.55-1.3-3.6-2.12c-1.05-0.83-1.9-1.8-2.55-2.93
				c-0.65-1.13-0.98-2.48-0.98-4.05c0-1.65,0.36-3.13,1.09-4.43c0.72-1.3,1.7-2.4,2.91-3.29c1.21-0.89,2.61-1.56,4.19-2.03
				c1.58-0.46,3.22-0.7,4.92-0.7c1.93,0,3.72,0.23,5.37,0.7c1.65,0.46,3.1,1.15,4.34,2.06c1.24,0.91,2.23,2.05,2.97,3.42
				c0.74,1.36,1.14,2.94,1.22,4.71h-5.71c-0.13-1-0.42-1.88-0.88-2.63c-0.46-0.75-1.06-1.37-1.8-1.86
				c-0.74-0.49-1.58-0.85-2.51-1.09c-0.94-0.24-1.93-0.36-2.98-0.36c-1.23,0-2.31,0.15-3.25,0.45c-0.94,0.3-1.73,0.71-2.37,1.22
				c-0.64,0.51-1.12,1.11-1.45,1.78c-0.33,0.68-0.49,1.38-0.49,2.1c0,0.98,0.32,1.83,0.98,2.55c0.65,0.73,1.5,1.38,2.55,1.95
				c1.05,0.58,2.25,1.1,3.6,1.58c1.35,0.48,2.73,0.97,4.13,1.48c1.4,0.51,2.78,1.07,4.13,1.67s2.55,1.29,3.6,2.08
				c1.05,0.79,1.9,1.71,2.55,2.76c0.65,1.05,0.98,2.29,0.98,3.72c0,2.05-0.41,3.8-1.22,5.24c-0.81,1.44-1.91,2.62-3.28,3.53
				c-1.38,0.91-2.97,1.58-4.79,2.01c-1.81,0.42-3.71,0.64-5.69,0.64c-1.93,0-3.75-0.26-5.48-0.77c-1.73-0.51-3.24-1.28-4.54-2.31
				c-1.3-1.03-2.35-2.31-3.13-3.87c-0.79-1.55-1.22-3.37-1.29-5.44H1224.19z"/>
		</g>
	</g>
</g>
</svg>
