<?xml version="1.0" standalone="no"?>
<!DOCTYPE svg PUBLIC "-//W3C//DTD SVG 20010904//EN"
 "http://www.w3.org/TR/2001/REC-SVG-20010904/DTD/svg10.dtd">
<svg version="1.0" xmlns="http://www.w3.org/2000/svg"
 width="596.000000pt" height="842.000000pt" viewBox="0 0 596.000000 842.000000"
 preserveAspectRatio="xMidYMid meet">

<g transform="translate(0.000000,842.000000) scale(0.100000,-0.100000)"
fill="#000000" stroke="none">
<path d="M1591 5956 c59 -171 61 -307 5 -466 l-23 -67 191 -78 c105 -42 197
-80 205 -83 20 -8 8 59 -35 188 -56 168 -153 334 -295 504 -39 47 -73 86 -74
86 -1 0 10 -38 26 -84z"/>
<path d="M1714 4138 c-43 -57 -159 -185 -257 -285 l-180 -183 7 -61 c10 -83
50 -238 87 -334 62 -162 148 -298 287 -452 113 -126 82 -134 309 84 108 103
251 241 318 305 l122 117 146 -162 c131 -147 343 -391 439 -507 l38 -45 0 565
0 566 -105 43 c-58 24 -108 41 -111 39 -11 -11 28 -86 52 -98 30 -17 30 -24
-2 -38 -26 -12 -54 -65 -54 -102 0 -11 -4 -20 -10 -20 -5 0 -10 12 -10 28 0
35 -35 93 -61 99 -25 7 -24 20 2 28 26 8 59 62 59 95 0 22 -9 29 -75 54 -42
16 -77 27 -80 25 -9 -10 -35 -125 -35 -156 0 -21 -5 -33 -13 -33 -9 0 -17 24
-24 69 -6 38 -22 94 -36 124 l-25 54 -343 138 c-189 75 -349 139 -356 142 -6
2 -46 -42 -89 -99z m756 -449 c0 -33 29 -85 55 -99 l24 -13 -34 -32 c-24 -22
-36 -44 -41 -73 -7 -47 -24 -47 -24 0 0 21 -10 40 -36 66 l-35 35 24 21 c31
26 47 57 47 90 0 14 5 26 10 26 6 0 10 -9 10 -21z"/>
<path d="M856 4188 c13 -71 73 -230 115 -304 41 -72 136 -190 146 -181 2 3 -3
49 -11 103 -9 55 -19 131 -23 170 l-8 70 -107 87 c-59 48 -110 87 -113 87 -2
0 -2 -15 1 -32z"/>
<path d="M4585 3843 c-120 -17 -225 -63 -289 -126 -93 -93 -119 -200 -119
-482 0 -229 13 -309 64 -406 51 -95 124 -149 254 -187 37 -11 128 -16 358 -19
l307 -5 0 106 0 106 -27 -6 c-97 -17 -123 -21 -123 -17 0 2 13 23 29 46 68
100 83 154 97 347 7 107 -9 291 -31 369 -9 28 -26 62 -38 76 l-22 26 -82 -83
-82 -83 9 -45 c13 -62 12 -351 -1 -429 -11 -74 -28 -110 -67 -146 -51 -48
-169 -68 -257 -44 -50 14 -115 80 -133 134 -19 57 -27 341 -13 444 14 108 44
161 107 191 54 27 153 37 209 21 l40 -11 77 77 78 78 -46 23 c-80 41 -199 59
-299 45z"/>
<path d="M3160 3826 c-11 -11 -15 -1151 -4 -1180 5 -13 25 -16 115 -16 60 0
110 1 111 3 1 1 5 110 8 242 l5 240 206 3 c163 2 209 0 217 -11 8 -9 13 -92
14 -243 l3 -229 110 0 110 0 3 594 c1 411 -1 597 -8 601 -9 6 -184 6 -212 1
-5 0 -8 -108 -8 -238 0 -131 -4 -244 -8 -251 -7 -9 -57 -12 -218 -10 l-209 3
-3 239 c-1 137 -7 244 -12 251 -13 15 -205 16 -220 1z"/>
<path d="M1474 2521 c-28 -12 -60 -54 -75 -98 -17 -53 3 -134 42 -167 39 -33
87 -41 132 -23 46 20 89 97 54 97 -8 0 -19 -11 -25 -25 -14 -31 -65 -57 -96
-49 -13 3 -35 17 -48 31 -19 21 -23 35 -23 90 0 60 2 67 33 94 43 39 73 37
122 -7 43 -39 60 -39 42 0 -22 48 -107 79 -158 57z"/>
<path d="M3130 2517 c-32 -16 -47 -58 -34 -94 7 -22 23 -33 69 -51 81 -31 90
-36 93 -58 4 -28 -19 -53 -56 -60 -28 -6 -37 -2 -66 30 -55 58 -81 38 -30 -23
58 -70 184 -43 184 40 0 48 -16 66 -77 89 -92 34 -114 64 -71 94 34 24 63 19
91 -14 28 -32 47 -39 47 -16 0 60 -85 96 -150 63z"/>
<path d="M1700 2375 c0 -122 2 -145 15 -145 13 0 15 23 15 145 0 122 -2 145
-15 145 -13 0 -15 -23 -15 -145z"/>
<path d="M2450 2500 c0 -11 7 -20 15 -20 8 0 15 9 15 20 0 11 -7 20 -15 20 -8
0 -15 -9 -15 -20z"/>
<path d="M3900 2500 c0 -11 7 -20 15 -20 8 0 15 9 15 20 0 11 -7 20 -15 20 -8
0 -15 -9 -15 -20z"/>
<path d="M1828 2435 c-36 -20 -48 -44 -48 -99 0 -63 37 -106 91 -106 29 0 47
7 64 25 14 13 25 29 25 35 0 18 -29 11 -40 -10 -8 -14 -21 -20 -45 -20 -28 0
-37 6 -50 30 -8 16 -15 31 -15 35 0 3 34 5 75 5 l75 0 0 29 c0 64 -76 107
-132 76z m82 -35 c31 -31 24 -40 -30 -40 -27 0 -53 0 -57 -1 -17 -1 -13 21 6
40 26 26 55 27 81 1z"/>
<path d="M2050 2443 c-24 -9 -50 -35 -50 -50 0 -19 16 -16 49 8 31 23 65 19
75 -8 9 -21 1 -27 -62 -48 -65 -21 -84 -50 -58 -90 18 -28 70 -34 109 -14 16
9 22 9 25 0 5 -16 42 -14 42 3 0 8 -4 18 -10 21 -5 3 -10 36 -10 73 0 76 -5
87 -43 101 -30 12 -44 13 -67 4z m80 -121 c0 -34 -29 -62 -66 -62 -29 0 -34 3
-34 24 0 20 8 27 43 39 55 20 57 20 57 -1z"/>
<path d="M2283 2435 c-18 -8 -33 -10 -33 -5 0 6 -7 10 -15 10 -12 0 -15 -18
-15 -105 0 -87 3 -105 15 -105 12 0 15 14 15 69 0 74 14 103 56 115 40 12 54
-17 54 -105 0 -64 3 -79 15 -79 12 0 15 16 15 88 0 55 -5 94 -12 105 -19 23
-58 29 -95 12z"/>
<path d="M2612 2440 c-13 -6 -35 -7 -48 -4 l-24 6 0 -106 c0 -88 3 -106 15
-106 12 0 15 14 15 69 0 73 15 104 55 115 39 11 48 -7 49 -95 2 -71 5 -84 19
-87 15 -3 17 7 17 85 0 56 -5 95 -12 106 -17 21 -57 29 -86 17z"/>
<path d="M2805 2438 c-29 -17 -43 -39 -50 -79 -8 -44 14 -103 43 -118 27 -15
75 -14 90 1 9 9 12 6 12 -13 0 -49 -55 -75 -91 -43 -10 9 -26 14 -36 12 -16
-3 -15 -7 9 -31 36 -36 89 -37 123 -2 24 23 25 30 25 150 0 104 -2 125 -15
125 -8 0 -15 -4 -15 -9 0 -6 -12 -3 -27 5 -33 17 -42 17 -68 2z m75 -38 c14
-14 20 -33 20 -63 0 -69 -40 -101 -83 -67 -41 33 -41 106 0 138 24 17 40 15
63 -8z"/>
<path d="M3400 2443 c-30 -11 -60 -47 -66 -79 -8 -42 11 -100 39 -119 47 -33
137 -7 137 40 0 21 -13 19 -35 -5 -24 -27 -70 -26 -89 2 -29 42 -22 48 59 48
69 0 75 2 75 20 0 63 -65 113 -120 93z m64 -39 c22 -21 21 -58 0 -50 -9 3 -33
6 -55 6 -42 0 -49 12 -22 42 20 22 56 23 77 2z"/>
<path d="M4034 2440 c-12 -5 -29 -19 -38 -32 -31 -44 -12 -156 29 -172 39 -15
83 -6 104 20 12 15 21 31 21 35 0 17 -35 9 -48 -11 -14 -23 -54 -26 -72 -5 -6
8 -14 32 -17 54 -5 33 -1 44 20 65 31 31 41 32 67 6 20 -20 50 -27 50 -11 0
37 -73 70 -116 51z"/>
<path d="M4240 2438 c-60 -31 -74 -135 -24 -185 34 -34 97 -32 130 4 32 35 15
57 -19 25 -30 -29 -71 -28 -91 0 -29 42 -22 48 59 48 l75 0 0 29 c0 62 -75
107 -130 79z m81 -39 c31 -31 19 -43 -42 -42 -61 1 -76 20 -37 47 30 22 54 20
79 -5z"/>
<path d="M4443 2440 c-27 -11 -46 -45 -38 -70 3 -10 29 -28 60 -41 56 -23 72
-41 52 -57 -29 -22 -49 -21 -73 3 -30 30 -44 32 -44 7 0 -30 33 -52 76 -52 48
0 84 23 84 54 0 29 -23 49 -77 71 -46 18 -55 38 -24 55 21 10 51 4 51 -11 0
-5 9 -9 20 -9 23 0 27 22 7 39 -20 16 -69 22 -94 11z"/>
<path d="M2450 2335 c0 -87 3 -105 15 -105 12 0 15 18 15 105 0 87 -3 105 -15
105 -12 0 -15 -18 -15 -105z"/>
<path d="M3562 2338 c3 -89 5 -103 21 -106 15 -3 17 5 17 72 0 79 13 106 51
106 10 0 19 7 19 15 0 18 -41 20 -58 3 -9 -9 -12 -9 -12 0 0 7 -9 12 -20 12
-20 0 -21 -5 -18 -102z"/>
<path d="M3680 2434 c0 -4 16 -52 36 -106 27 -74 41 -98 54 -98 20 0 19 -1 62
119 16 45 27 85 24 88 -15 16 -37 -14 -57 -76 -13 -39 -25 -71 -29 -71 -3 0
-16 33 -30 72 -17 49 -31 74 -42 76 -10 2 -18 0 -18 -4z"/>
<path d="M3900 2335 c0 -87 3 -105 15 -105 12 0 15 18 15 105 0 87 -3 105 -15
105 -12 0 -15 -18 -15 -105z"/>
</g>
</svg>
